<mxfile host="app.diagrams.net" modified="2023-06-19T18:33:03.929Z" agent="Mozilla/5.0 (Windows NT 10.0; Win64; x64; rv:109.0) Gecko/20100101 Firefox/114.0" etag="plh6kRzttd853dwiJgkp" version="21.5.0" type="github">
  <diagram name="Seite-1" id="DoQBkOF4jj8d4Fz2A6Yx">
    <mxGraphModel dx="1050" dy="2876" grid="1" gridSize="10" guides="1" tooltips="1" connect="1" arrows="1" fold="1" page="1" pageScale="1" pageWidth="827" pageHeight="1169" math="0" shadow="0">
      <root>
        <mxCell id="0" />
        <mxCell id="1" parent="0" />
        <mxCell id="F2GkB_0DRz0aOYBV0kwx-17" style="edgeStyle=orthogonalEdgeStyle;rounded=0;orthogonalLoop=1;jettySize=auto;html=1;" edge="1" parent="1" source="F2GkB_0DRz0aOYBV0kwx-3" target="F2GkB_0DRz0aOYBV0kwx-7">
          <mxGeometry relative="1" as="geometry" />
        </mxCell>
        <mxCell id="F2GkB_0DRz0aOYBV0kwx-3" value="Angular 16" style="shape=image;verticalLabelPosition=bottom;labelBackgroundColor=default;verticalAlign=top;aspect=fixed;imageAspect=0;image=https://upload.wikimedia.org/wikipedia/commons/thumb/c/cf/Angular_full_color_logo.svg/640px-Angular_full_color_logo.svg.png;fontSize=14;fontStyle=0" vertex="1" parent="1">
          <mxGeometry y="-2262.5" width="155" height="155" as="geometry" />
        </mxCell>
        <mxCell id="F2GkB_0DRz0aOYBV0kwx-19" style="edgeStyle=orthogonalEdgeStyle;rounded=0;orthogonalLoop=1;jettySize=auto;html=1;" edge="1" parent="1" source="F2GkB_0DRz0aOYBV0kwx-7" target="F2GkB_0DRz0aOYBV0kwx-8">
          <mxGeometry relative="1" as="geometry" />
        </mxCell>
        <mxCell id="F2GkB_0DRz0aOYBV0kwx-7" value="Java 11" style="shape=image;verticalLabelPosition=bottom;labelBackgroundColor=default;verticalAlign=top;aspect=fixed;imageAspect=0;image=https://static.vecteezy.com/system/resources/previews/022/101/050/original/java-logo-transparent-free-png.png;fontSize=14;clipPath=inset(10.33% 16.33% 11.33% 18%);" vertex="1" parent="1">
          <mxGeometry x="299" y="-2300" width="192.7921027997617" height="230" as="geometry" />
        </mxCell>
        <mxCell id="F2GkB_0DRz0aOYBV0kwx-8" value="QuizAPI 1.0" style="shape=image;verticalLabelPosition=bottom;labelBackgroundColor=default;verticalAlign=top;aspect=fixed;imageAspect=0;image=https://quizapi.io/storage/settings/March2020/H8dOZWtQD0IND4pqOJTT.png;fontSize=14;clipPath=inset(9.35% 7.33% 9.35% 8.67%);" vertex="1" parent="1">
          <mxGeometry x="587" y="-2232.62" width="240" height="95.23809523809524" as="geometry" />
        </mxCell>
        <mxCell id="F2GkB_0DRz0aOYBV0kwx-12" value="PostgreSQL" style="shape=image;verticalLabelPosition=bottom;labelBackgroundColor=default;verticalAlign=top;aspect=fixed;imageAspect=0;image=https://upload.wikimedia.org/wikipedia/commons/thumb/2/29/Postgresql_elephant.svg/1200px-Postgresql_elephant.svg.png;fontSize=14;" vertex="1" parent="1">
          <mxGeometry x="332.71999999999997" y="-1884" width="125.35" height="129.34" as="geometry" />
        </mxCell>
        <mxCell id="F2GkB_0DRz0aOYBV0kwx-13" value="&lt;b&gt;&lt;font style=&quot;font-size: 16px;&quot;&gt;Frontend&lt;/font&gt;&lt;/b&gt;" style="text;html=1;align=center;verticalAlign=middle;resizable=0;points=[];autosize=1;strokeColor=none;fillColor=none;" vertex="1" parent="1">
          <mxGeometry x="32.5" y="-2320" width="90" height="30" as="geometry" />
        </mxCell>
        <mxCell id="F2GkB_0DRz0aOYBV0kwx-14" value="&lt;font size=&quot;1&quot;&gt;&lt;b style=&quot;font-size: 16px;&quot;&gt;Backend&lt;/b&gt;&lt;/font&gt;" style="text;html=1;align=center;verticalAlign=middle;resizable=0;points=[];autosize=1;strokeColor=none;fillColor=none;" vertex="1" parent="1">
          <mxGeometry x="350.40000000000003" y="-2320" width="90" height="30" as="geometry" />
        </mxCell>
        <mxCell id="F2GkB_0DRz0aOYBV0kwx-15" value="&lt;font style=&quot;font-size: 16px;&quot;&gt;&lt;b&gt;Externe API&lt;br&gt;&lt;/b&gt;&lt;/font&gt;" style="text;html=1;align=center;verticalAlign=middle;resizable=0;points=[];autosize=1;strokeColor=none;fillColor=none;" vertex="1" parent="1">
          <mxGeometry x="652" y="-2320" width="110" height="30" as="geometry" />
        </mxCell>
        <mxCell id="F2GkB_0DRz0aOYBV0kwx-16" value="&lt;b&gt;&lt;font style=&quot;font-size: 16px;&quot;&gt;Datenbank&lt;/font&gt;&lt;/b&gt;" style="text;html=1;align=center;verticalAlign=middle;resizable=0;points=[];autosize=1;strokeColor=none;fillColor=none;" vertex="1" parent="1">
          <mxGeometry x="340.4" y="-1934" width="110" height="30" as="geometry" />
        </mxCell>
        <mxCell id="F2GkB_0DRz0aOYBV0kwx-22" value="" style="endArrow=classic;html=1;rounded=0;" edge="1" parent="1">
          <mxGeometry width="50" height="50" relative="1" as="geometry">
            <mxPoint x="395" y="-2033" as="sourcePoint" />
            <mxPoint x="394.9" y="-1943" as="targetPoint" />
          </mxGeometry>
        </mxCell>
      </root>
    </mxGraphModel>
  </diagram>
</mxfile>
